<svg width="25" height="24" viewBox="0 0 25 24" fill="none" xmlns="http://www.w3.org/2000/svg">
<g id="key">
<path id="Vector" d="M21.4998 2L19.4998 4M19.4998 4L22.4998 7L18.9998 10.5L15.9998 7.5M19.4998 4L15.9998 7.5M11.8898 11.61C12.4061 12.1195 12.8166 12.726 13.0975 13.3948C13.3785 14.0635 13.5244 14.7813 13.5268 15.5066C13.5292 16.232 13.3882 16.9507 13.1117 17.6213C12.8352 18.2919 12.4288 18.9012 11.9159 19.4141C11.403 19.9271 10.7937 20.3334 10.1231 20.6099C9.45247 20.8864 8.73379 21.0275 8.00842 21.025C7.28305 21.0226 6.56533 20.8767 5.89658 20.5958C5.22782 20.3148 4.62125 19.9043 4.11179 19.388C3.10992 18.3507 2.55555 16.9614 2.56808 15.5193C2.58061 14.0772 3.15904 12.6977 4.17878 11.678C5.19853 10.6583 6.578 10.0798 8.02008 10.0673C9.46216 10.0548 10.8515 10.6091 11.8888 11.611L11.8898 11.61ZM11.8898 11.61L15.9998 7.5" stroke="#888888" strokeWidth="2" strokeLinecap="round" stroke-linejoin="round"/>
</g>
</svg>
