<svg width="24" height="24" viewBox="0 0 24 24" fill="none" xmlns="http://www.w3.org/2000/svg">
<path d="M17 21V19C17 17.9391 16.5786 16.9217 15.8284 16.1716C15.0783 15.4214 14.0609 15 13 15H5C3.93913 15 2.92172 15.4214 2.17157 16.1716C1.42143 16.9217 1 17.9391 1 19V21" stroke="white" stroke-width="2" stroke-linecap="round" stroke-linejoin="round"/>
<path d="M9 11C11.2091 11 13 9.20914 13 7C13 4.79086 11.2091 3 9 3C6.79086 3 5 4.79086 5 7C5 9.20914 6.79086 11 9 11Z" fill="white" stroke="white" stroke-width="2" stroke-linecap="round" stroke-linejoin="round"/>
<path d="M23 21V19C22.9993 18.1137 22.7044 17.2528 22.1614 16.5523C21.6184 15.8519 20.8581 15.3516 20 15.13" stroke="white" stroke-width="2" stroke-linecap="round" stroke-linejoin="round"/>
<path d="M17 3C17.8604 3.22031 18.623 3.72071 19.1676 4.42232C19.7122 5.12392 20.0078 5.98683 20.0078 6.875C20.0078 7.76318 19.7122 8.62608 19.1676 9.32769C18.623 10.0293 17.8604 10.5297 17 10.75" fill="white"/>
<path d="M17 3C17.8604 3.22031 18.623 3.72071 19.1676 4.42232C19.7122 5.12392 20.0078 5.98683 20.0078 6.875C20.0078 7.76318 19.7122 8.62608 19.1676 9.32769C18.623 10.0293 17.8604 10.5297 17 10.75" stroke="white" stroke-width="2" stroke-linecap="round" stroke-linejoin="round"/>
</svg>
