<svg width="24" height="24" viewBox="0 0 24 24" fill="none" xmlns="http://www.w3.org/2000/svg">
<g clip-path="url(#clip0_314_11)">
<mask id="mask0_314_11" style="mask-type:luminance" maskUnits="userSpaceOnUse" x="0" y="0" width="24" height="24">
<path d="M24 0.777832H0V23.8178H24V0.777832Z" fill="white"/>
</mask>
<g mask="url(#mask0_314_11)">
<path d="M19.4 15.1778C19.2669 15.4673 19.2272 15.7885 19.286 16.1C19.3448 16.4114 19.4995 16.6987 19.73 16.925L19.79 16.9826C19.976 17.1609 20.1235 17.3726 20.2241 17.6057C20.3248 17.8388 20.3766 18.0887 20.3766 18.341C20.3766 18.5933 20.3248 18.8432 20.2241 19.0763C20.1235 19.3093 19.976 19.5211 19.79 19.6994C19.6043 19.878 19.3837 20.0196 19.1409 20.1161C18.8981 20.2128 18.6378 20.2625 18.375 20.2625C18.1122 20.2625 17.8519 20.2128 17.6091 20.1161C17.3663 20.0196 17.1457 19.878 16.96 19.6994L16.9 19.6418C16.6643 19.4205 16.365 19.272 16.0406 19.2156C15.7162 19.1591 15.3816 19.1972 15.08 19.325C14.7842 19.4467 14.532 19.6487 14.3543 19.9063C14.1766 20.1638 14.0813 20.4657 14.08 20.7746V20.9378C14.08 21.447 13.8693 21.9353 13.4942 22.2954C13.1191 22.6555 12.6104 22.8578 12.08 22.8578C11.5496 22.8578 11.0409 22.6555 10.6658 22.2954C10.2907 21.9353 10.08 21.447 10.08 20.9378V20.8514C10.0723 20.5336 9.96512 20.2255 9.77251 19.9669C9.5799 19.7084 9.31074 19.5115 9 19.4018C8.69838 19.274 8.36381 19.2359 8.03941 19.2924C7.71502 19.3488 7.41568 19.4973 7.18 19.7186L7.12 19.7762C6.93425 19.9548 6.71368 20.0964 6.47088 20.1929C6.22808 20.2896 5.96783 20.3393 5.705 20.3393C5.44217 20.3393 5.18192 20.2896 4.93912 20.1929C4.69632 20.0964 4.47575 19.9548 4.29 19.7762C4.10405 19.5979 3.95653 19.3861 3.85588 19.1531C3.75523 18.92 3.70343 18.6701 3.70343 18.4178C3.70343 18.1655 3.75523 17.9156 3.85588 17.6825C3.95653 17.4494 4.10405 17.2377 4.29 17.0594L4.35 17.0018C4.58054 16.7755 4.73519 16.4882 4.794 16.1768C4.85282 15.8653 4.81312 15.5441 4.68 15.2546C4.55324 14.9706 4.34276 14.7285 4.07447 14.5579C3.80618 14.3873 3.49179 14.2958 3.17 14.2946H3C2.46957 14.2946 1.96086 14.0923 1.58579 13.7322C1.21071 13.3721 1 12.8838 1 12.3746C1 11.8654 1.21071 11.3771 1.58579 11.017C1.96086 10.6569 2.46957 10.4546 3 10.4546H3.09C3.42099 10.4472 3.742 10.3443 4.0113 10.1594C4.28059 9.9745 4.48572 9.71606 4.6 9.41779C4.73312 9.12825 4.77282 8.80705 4.714 8.49563C4.65519 8.18421 4.50054 7.89685 4.27 7.67059L4.21 7.61299C4.02405 7.43468 3.87653 7.22293 3.77588 6.98984C3.67523 6.75676 3.62343 6.50691 3.62343 6.25459C3.62343 6.00228 3.67523 5.75244 3.77588 5.51935C3.87653 5.28627 4.02405 5.07451 4.21 4.89619C4.39575 4.71768 4.61632 4.57606 4.85912 4.47944C5.10192 4.38281 5.36217 4.33309 5.625 4.33309C5.88783 4.33309 6.14808 4.38281 6.39088 4.47944C6.63368 4.57606 6.85425 4.71768 7.04 4.89619L7.1 4.95379C7.33568 5.17511 7.63502 5.32358 7.95941 5.38004C8.28381 5.43651 8.61838 5.39839 8.92 5.27059H9C9.29577 5.1489 9.54802 4.94684 9.72569 4.68928C9.90337 4.43173 9.99872 4.12991 10 3.82099V3.65779C10 3.14858 10.2107 2.66022 10.5858 2.30015C10.9609 1.94008 11.4696 1.73779 12 1.73779C12.5304 1.73779 13.0391 1.94008 13.4142 2.30015C13.7893 2.66022 14 3.14858 14 3.65779V3.74419C14.0013 4.05311 14.0966 4.35493 14.2743 4.61248C14.452 4.87004 14.7042 5.0721 15 5.19379C15.3016 5.32159 15.6362 5.35971 15.9606 5.30324C16.285 5.24678 16.5843 5.09831 16.82 4.87699L16.88 4.81939C17.0657 4.64088 17.2863 4.49926 17.5291 4.40264C17.7719 4.30601 18.0322 4.25629 18.295 4.25629C18.5578 4.25629 18.8181 4.30601 19.0609 4.40264C19.3037 4.49926 19.5243 4.64088 19.71 4.81939C19.896 4.99771 20.0435 5.20947 20.1441 5.44255C20.2448 5.67564 20.2966 5.92548 20.2966 6.17779C20.2966 6.43011 20.2448 6.67996 20.1441 6.91304C20.0435 7.14613 19.896 7.35788 19.71 7.53619L19.65 7.59379C19.4195 7.82005 19.2648 8.10741 19.206 8.41883C19.1472 8.73025 19.1869 9.05145 19.32 9.34099V9.41779C19.4468 9.70176 19.6572 9.94387 19.9255 10.1145C20.1938 10.2851 20.5082 10.3765 20.83 10.3778H21C21.5304 10.3778 22.0391 10.5801 22.4142 10.9402C22.7893 11.3003 23 11.7886 23 12.2978C23 12.807 22.7893 13.2953 22.4142 13.6554C22.0391 14.0155 21.5304 14.2178 21 14.2178H20.91C20.5882 14.219 20.2738 14.3105 20.0055 14.4811C19.7372 14.6517 19.5268 14.8938 19.4 15.1778Z" fill="white" stroke="white" stroke-width="2" stroke-linecap="round" stroke-linejoin="round"/>
<path d="M12 15.1778C13.6569 15.1778 15 13.8885 15 12.2978C15 10.7072 13.6569 9.41785 12 9.41785C10.3431 9.41785 9 10.7072 9 12.2978C9 13.8885 10.3431 15.1778 12 15.1778Z" stroke="#0E121F" stroke-width="2" stroke-linecap="round" stroke-linejoin="round"/>
</g>
</g>
<defs>
<clipPath id="clip0_314_11">
<rect width="24" height="24" fill="white"/>
</clipPath>
</defs>
</svg>
